<?xml version="1.0" encoding="UTF-8"?>
<svg id="Layer_1" data-name="Layer 1" xmlns="http://www.w3.org/2000/svg" viewBox="0 0 189.97 189.97">
  <defs>
    <style>
      .cls-1 {
        fill: #f61511;
      }

      .cls-2 {
        fill: #ece6d4;
      }
    </style>
  </defs>
  <rect class="cls-2" x="33.13" y="10.86" width="137.12" height="178.76"/>
  <path class="cls-1" d="M94.1,189.63v-71.37l-26.92-.08.08-30.62h26.84v-20s-1.07-22,9.72-32.44c0,0,9.17-18.23,53.96-10.07l.06,25.9-16.79.24s-11.99.24-13.67,13.79c.08,7.51.16,15.03.24,22.54l28.78.12-4.56,30.46-24.46.12-.12,71.47h41.25s17.55.08,21.39-19.67l-.02-149.31s-.87-17.21-20.54-20.54L64.05.02,20.38.17S.56,2.77-.02,22.87v145.93s2.6,20.25,21.69,21.12l72.42-.29Z"/>
</svg>