<?xml version="1.0" encoding="UTF-8"?>
<svg id="Layer_1" data-name="Layer 1" xmlns="http://www.w3.org/2000/svg" viewBox="0 0 190.47 190.47">
  <defs>
    <style>
      .cls-1 {
        fill: #f61511;
      }

      .cls-2 {
        fill: #ece6d4;
      }
    </style>
  </defs>
  <path class="cls-1" d="M.17,19.56S2.7,2.87,19.65.08h35.66s52.53,0,52.53,0l60.45-.08s20.07,1.6,21.92,20.66l.25,45.11v59.86s-.08,44.27-.08,44.27c0,0-2.28,18.38-20.32,20.4l-61.47.17h-47.55s-40.22-.08-40.22-.08c0,0-17.79-1.85-20.49-19.56l-.34-94.26L.17,19.56Z"/>
  <path class="cls-2" d="M31.94,57.57s2.86-11.76,10.25-17.56c0,0,7.87-8.66,26.07-9.54s35.53-.4,35.53-.4c0,0,20.74.24,22.97.79,0,0,13.35,1.43,19.95,7.87,0,0,8.19,6.28,10.65,15.1,0,0,2.86,6.68,2.78,21.22,0,0,.56,22.81.24,27.82,0,0,.16,25.99-2.23,31.31s-1.67,9.38-12.32,18.44c0,0-8.38,8.58-34.41,7.79,0,0-39.06,0-42.64-.4s-17.56-.72-25.75-8.82c0,0-9.93-7.15-11.84-23.05,0,0-1.19-2.7-1.11-32.98s.64-33.14,1.87-37.59Z"/>
  <path class="cls-1" d="M42.4,124.48s-1.31-45.64-.24-55.55c1.08-9.92,1.93-11.24,1.93-11.24,0,0,3.23-8.28,9.61-11.64,6.38-3.37,10.38-3.23,10.38-3.23,0,0,13.4-1.26,32.83-.91,19.43.35,25.67.35,25.67.35,0,0,13.82.49,19.5,8.28,5.68,7.79,5.12,11.22,5.12,11.22,0,0,1.68,7.08,1.26,25.25,0,0,.28,21.57.07,23.88-.21,2.31-.12,13.19-.9,15.99-.79,2.8.05,5.21-4.67,12.04-4.72,6.83-13.17,8.26-13.17,8.26,0,0-2.26.97-13.07,1.24-10.81.27-24.95.22-24.95.22l-21.62-.27s-10.81-.44-15.29-3.33-10.73-5.87-12.46-20.56Z"/>
  <circle class="cls-2" cx="95.32" cy="95.42" r="33.57"/>
  <circle class="cls-1" cx="95.2" cy="95.31" r="21.65"/>
  <circle class="cls-2" cx="129.99" cy="60.49" r="7.85"/>
</svg>