<?xml version="1.0" encoding="UTF-8"?>
<svg id="Layer_1" data-name="Layer 1" xmlns="http://www.w3.org/2000/svg" viewBox="0 0 190.47 190.47">
  <defs>
    <style>
      .cls-1 {
        fill: #f61511;
      }

      .cls-2 {
        fill: #ece6d4;
      }
    </style>
  </defs>
  <path class="cls-1" d="M.17,19.56S2.7,2.87,19.65.08h35.66s52.53,0,52.53,0l60.45-.08s20.07,1.6,21.92,20.66l.25,45.11v59.86s-.08,44.27-.08,44.27c0,0-2.28,18.38-20.32,20.4l-61.47.17h-47.55s-40.22-.08-40.22-.08c0,0-17.79-1.85-20.49-19.56l-.34-94.26L.17,19.56Z"/>
  <circle class="cls-2" cx="43.85" cy="43.47" r="16.86"/>
  <rect class="cls-2" x="29.69" y="72.04" width="28.11" height="90.83"/>
  <rect class="cls-2" x="75.77" y="72.08" width="27.08" height="90.77"/>
  <rect class="cls-2" x="135.29" y="104.16" width="28.04" height="58.7"/>
  <path class="cls-2" d="M102.8,84.34s12.03-20.41,35.66-14.09c0,0,25.98,3.38,24.87,33.9l-28.23,7.67s.52-15.36-13.81-17.04-17.56,12.91-17.56,12.91c0,0-.39,1.55-1.03,5.55s.1-28.9.1-28.9Z"/>
</svg>