<?xml version="1.0" encoding="UTF-8"?>
<svg id="Layer_2" xmlns="http://www.w3.org/2000/svg" version="1.1" viewBox="0 0 553.8 136.7">
  <!-- Generator: Adobe Illustrator 29.1.0, SVG Export Plug-In . SVG Version: 2.1.0 Build 142)  -->
  <defs>
    <style>
      .st0, .st1 {
        fill: #ff8e1b;
      }

      .st2 {
        isolation: isolate;
      }

      .st1, .st3, .st4 {
        stroke: #ff8e1b;
        stroke-miterlimit: 10;
      }

      .st3, .st4 {
        fill: #eee;
      }

      .st4 {
        stroke-width: .2px;
      }
    </style>
  </defs>
  <g id="Layer_1-2">
    <circle class="st1" cx="51.9" cy="103.4" r="32.8"/>
    <path class="st0" d="M.1,94.7s-5.4-37,57.3-55c0,0,20.7-6.8,55.2-6.8,0,0,75.7,2.2,91.2,2.2s88,4.8,151.4-12.2c0,0-84.5-37.2-188.2,10l-2,1.1S199-1.7,277.8,0c78.7,1.8,112,24.2,112,24.2l11.9,7.6s43.3-4.6,52.4-9.1c0,0-2.4,6.9-18.5,20.5,0,0,15.2,12.6,1.7,44.9,0,0-11.7-25.2-62.1-14.4,0,0-105.7-2-155.3,4.2s-82,11.3-116.2,27c0,0,2.2-37.5-42.5-48.3,0,0-49.4-9.9-61,38H.1s0,0,0,0h0Z"/>
    <g class="st2">
      <g class="st2">
        <g class="st2">
          <g class="st2">
            <path d="M152,125.9v-26.7h29.3v4.9h-23.3v5.9h21.2v4.9h-21.2v6.2h23.3v4.9h-29.3Z"/>
            <path d="M185.4,125.9v-26.7h6v26.7h-6Z"/>
            <path d="M195.8,126v-4.9h21.5c1.1,0,1.9-.2,2.5-.7.6-.5.9-1.3.9-2.5s-.3-2-.9-2.5c-.6-.5-1.4-.8-2.5-.8h-13.4c-2.8,0-4.9-.7-6.5-2-1.5-1.3-2.3-3.3-2.3-5.9s.8-4.6,2.3-5.9c1.5-1.3,3.7-2,6.5-2h21v4.9h-20.4c-1.1,0-1.9.2-2.5.7-.6.5-.9,1.3-.9,2.3s.3,1.9.9,2.3c.6.5,1.4.7,2.5.7h13.4c2.8,0,4.9.7,6.5,2,1.5,1.4,2.3,3.4,2.3,6s-.8,4.7-2.3,6c-1.5,1.4-3.7,2.1-6.5,2.1h-22.1Z"/>
            <path d="M230.4,125.9v-26.7h29.3v4.9h-23.3v5.9h21.2v4.9h-21.2v6.2h23.3v4.9h-29.3Z"/>
            <path d="M263.9,125.9v-26.7h6.1l18.9,19.2v-19.2h6v26.7h-6.1l-18.9-19.3v19.3h-6Z"/>
            <path d="M326.9,126c-4.9,0-8.7-1.1-11.3-3.4-2.6-2.3-3.9-5.7-3.9-10.2s1.3-7.8,3.9-10.1c2.6-2.3,6.4-3.4,11.3-3.4h13.5v4.9h-13.1c-3.2,0-5.6.7-7.2,2.1-1.6,1.4-2.4,3.6-2.4,6.6s.8,5.3,2.4,6.6c1.6,1.4,4,2.1,7.2,2.1h13.4v4.9h-13.8Z"/>
            <path d="M342.3,125.9l12-26.7h9.2l12,26.7h-6.5l-2.5-5.6h-15.2l-2.5,5.6h-6.5ZM353.5,115.4h10.9l-5.2-11.6h-.5l-5.2,11.6Z"/>
          </g>
        </g>
      </g>
      <g class="st2">
        <g class="st2">
          <g class="st2">
            <path d="M378.6,125.9v-26.7h22.4c2.8,0,4.9.7,6.5,2.1,1.5,1.4,2.3,3.5,2.3,6.4s-.6,4.3-1.7,5.7-2.7,2.2-4.8,2.6l6.2,10h-6.8l-5.7-9.8h-12.3v9.8h-6ZM400.3,104h-15.7v7.1h15.7c1.1,0,1.9-.2,2.5-.8.6-.5.9-1.5.9-2.8s-.3-2.2-.9-2.8c-.6-.5-1.4-.8-2.5-.8Z"/>
          </g>
        </g>
      </g>
      <g class="st2">
        <g class="st2">
          <g class="st2">
            <path d="M415.4,125.9l-3-26.7h6l2.2,19.5,7.4-5.7v-13.8h6v13.8l7.4,5.7,2.2-19.5h6l-3,26.7h-5l-10.6-8.6-10.6,8.6h-5Z"/>
          </g>
        </g>
      </g>
      <g class="st2">
        <g class="st2">
          <g class="st2">
            <path d="M450.3,125.9l12-26.7h9.2l12,26.7h-6.5l-2.5-5.6h-15.2l-2.5,5.6h-6.5ZM461.5,115.4h10.9l-5.2-11.6h-.5l-5.2,11.6Z"/>
            <path d="M485.8,126v-4.9h21.5c1.1,0,1.9-.2,2.5-.7.6-.5.9-1.3.9-2.5s-.3-2-.9-2.5c-.6-.5-1.4-.8-2.5-.8h-13.4c-2.8,0-4.9-.7-6.5-2-1.5-1.3-2.3-3.3-2.3-5.9s.8-4.6,2.3-5.9,3.7-2,6.5-2h21v4.9h-20.4c-1.1,0-1.9.2-2.5.7-.6.5-.9,1.3-.9,2.3s.3,1.9.9,2.3c.6.5,1.4.7,2.5.7h13.4c2.8,0,4.9.7,6.5,2,1.5,1.4,2.3,3.4,2.3,6s-.8,4.7-2.3,6c-1.5,1.4-3.7,2.1-6.5,2.1h-22.1Z"/>
            <path d="M520.4,125.9v-26.7h6v11h18.8v-11h6v26.7h-6v-10.9h-18.8v10.9h-6Z"/>
          </g>
        </g>
      </g>
    </g>
    <path class="st3" d="M33.8,115.2s-5.5-8.1-3.1-18.3c0,0,18.4,6.3,3.1,18.3Z"/>
    <path class="st3" d="M35.2,89s6.2-7.6,16.6-8.3c0,0-.7,19.4-16.6,8.3Z"/>
    <path class="st3" d="M60.3,82.5s9,3.9,12.4,13.8c0,0-18.9,4.5-12.4-13.8Z"/>
    <path class="st3" d="M74.5,105.8s-1.8,9.6-10.7,15.2c0,0-8.6-17.5,10.7-15.2Z"/>
    <path class="st3" d="M55.9,125.1s-9.6,2-18.1-4c0,0,12.7-14.7,18.1,4Z"/>
    <circle class="st4" cx="44.5" cy="102.1" r="1.9"/>
    <circle class="st4" cx="53.2" cy="96.2" r="1.9"/>
    <circle class="st4" cx="59.1" cy="104.9" r="1.9"/>
    <circle class="st4" cx="50.3" cy="110.4" r="1.9"/>
  </g>
</svg>