<?xml version="1.0" encoding="UTF-8"?>
<svg id="Layer_1" data-name="Layer 1" xmlns="http://www.w3.org/2000/svg" viewBox="0 0 60.85 11.03">
  <defs>
    <style>
      .cls-1 {
        fill: #f61511;
      }
    </style>
  </defs>
  <path class="cls-1" d="M5.37,6.34h-3.29l-.88,2.22H0L3.46.04h.62l3.47,8.52h-1.27l-.9-2.22ZM2.44,5.35h2.59l-.96-2.39-.32-1.28h-.02l-.32,1.31-.96,2.36Z"/>
  <path class="cls-1" d="M8.59,7.94c0-.23.07-.42.22-.55.15-.14.34-.2.58-.2s.43.07.58.2c.15.14.22.32.22.55,0,.22-.07.4-.22.54-.15.14-.34.22-.58.22s-.43-.07-.58-.22c-.15-.14-.22-.32-.22-.54Z"/>
  <path class="cls-1" d="M19.87,5.09h-3.36v3.47h-1.78V.16h1.78v3.37h3.36V.16h1.78v8.4h-1.78v-3.47Z"/>
  <path class="cls-1" d="M23.23,2.69c.36-.16.8-.29,1.33-.4.52-.1,1.07-.16,1.63-.16.44,0,.81.05,1.11.16.3.1.54.25.71.45.18.2.3.43.38.71s.11.58.11.92c0,.41-.02.81-.05,1.21-.03.4-.05.82-.05,1.27,0,.3.02.6.06.89s.1.56.19.83h-1.37l-.28-.94h-.14c-.21.28-.47.52-.79.72-.32.2-.73.3-1.24.3-.3,0-.58-.04-.83-.13s-.47-.21-.65-.38c-.18-.16-.32-.36-.42-.58-.1-.22-.15-.47-.15-.73,0-.71.24-1.25.71-1.61.48-.36,1.2-.55,2.17-.55.22,0,.45.02.67.05.22.04.38.06.47.08.02-.17.04-.31.04-.43,0-.3-.08-.53-.23-.67s-.44-.22-.85-.22c-.38,0-.76.05-1.12.14-.36.09-.69.21-.97.34l-.44-1.27ZM25.43,7.31c.38,0,.68-.09.9-.26.22-.18.39-.36.49-.55v-.72s-.1-.03-.19-.05-.18-.03-.28-.05c-.1-.02-.2-.03-.3-.04-.1,0-.19-.01-.27-.01-.43,0-.75.08-.96.23-.21.16-.31.35-.31.58,0,.29.08.5.25.65s.39.22.67.22Z"/>
  <path class="cls-1" d="M30.23,6.92c.11.06.24.11.39.17.15.06.31.11.48.16.17.05.35.09.53.12.18.03.36.05.55.05.28,0,.5-.04.65-.13.16-.09.23-.25.23-.49,0-.19-.1-.33-.31-.43s-.46-.18-.77-.27c-.22-.06-.46-.14-.7-.23s-.47-.21-.67-.35-.37-.34-.5-.58c-.13-.24-.2-.54-.2-.91,0-.63.2-1.11.59-1.45.39-.33.96-.5,1.69-.5.48,0,.93.04,1.35.13.42.08.76.18,1.01.29l-.35,1.27c-.21-.08-.47-.16-.8-.25-.32-.08-.65-.13-.99-.13-.28,0-.49.04-.62.13-.14.08-.2.23-.2.44,0,.18.11.32.32.41.21.09.47.18.77.27.22.06.46.14.7.22s.47.2.67.34c.2.14.37.33.5.56s.2.51.2.86c0,.67-.22,1.19-.65,1.56-.44.37-1.09.55-1.96.55-.47,0-.91-.04-1.32-.13-.41-.08-.74-.21-1-.37l.42-1.32Z"/>
  <path class="cls-1" d="M40.28,8.56v-3.47c0-.54-.08-.93-.25-1.17-.16-.24-.47-.35-.91-.35-.32,0-.61.1-.88.31-.27.2-.45.47-.53.81v3.88h-1.68V.16h1.68v2.87h.14c.22-.28.49-.51.81-.68.32-.18.73-.26,1.23-.26.34,0,.64.04.9.13s.47.23.64.43c.17.2.3.48.39.82.09.34.13.76.13,1.27v3.84h-1.68Z"/>
  <path class="cls-1" d="M49.39,8.32c0,.93-.26,1.61-.79,2.05s-1.28.66-2.24.66c-.62,0-1.13-.04-1.51-.13s-.67-.18-.88-.28c.1-.32.18-.57.23-.76.05-.19.09-.33.11-.43.02-.1.04-.17.06-.22.19.1.42.19.7.29.27.1.6.15,1,.15.33,0,.6-.03.82-.1.22-.06.39-.16.52-.28s.22-.27.27-.45c.05-.18.08-.37.08-.59v-.47h-.14c-.16.23-.38.4-.66.49-.28.1-.63.14-1.04.14-.86,0-1.5-.24-1.93-.71-.43-.47-.64-1.23-.64-2.28,0-1.1.28-1.94.85-2.5s1.4-.84,2.51-.84c.58,0,1.11.04,1.57.11.46.08.84.16,1.13.26v5.86ZM46.29,7.1c.37,0,.67-.07.91-.2.24-.14.41-.3.51-.5v-2.71c-.3-.13-.67-.19-1.13-.19-.49,0-.86.14-1.13.43-.26.29-.4.76-.4,1.43,0,.61.11,1.05.34,1.33.22.28.52.42.9.42Z"/>
  <path class="cls-1" d="M51.07.9c0-.26.09-.47.28-.64s.44-.26.78-.26.62.09.82.26c.2.18.3.39.3.64,0,.23-.1.43-.3.6-.2.17-.47.25-.82.25s-.6-.08-.78-.25-.28-.37-.28-.6ZM51.32,2.26h1.68v6.3h-1.68V2.26Z"/>
  <path class="cls-1" d="M59.17,8.56v-3.46c0-.54-.08-.94-.25-1.18-.17-.24-.46-.36-.89-.36-.36,0-.67.1-.92.29-.25.2-.43.45-.52.75,0,.66,0,1.31,0,1.97,0,.66,0,1.32,0,1.97h-1.68V2.26h1.32l.18.9h.18c.21-.3.48-.55.83-.76.34-.21.79-.32,1.34-.32.34,0,.63.04.89.13.26.08.48.23.65.43.17.2.3.48.4.82.09.34.14.78.14,1.3v3.8h-1.68Z"/>
</svg>